<!-- Generated by IcoMoon.io -->
<svg version="1.1" xmlns="http://www.w3.org/2000/svg" width="41" height="48" viewBox="0 0 41 48">
<title></title>
<g id="icomoon-ignore">
</g>
<path fill="#000" d="M6.348 37.875h6.187v-18.589h-6.188v18.589zM12.938 13.554c-0.027-1.821-1.339-3.214-3.455-3.214s-3.509 1.393-3.509 3.214c0 1.768 1.339 3.214 3.429 3.214h0.027c2.17 0 3.509-1.446 3.509-3.214zM28.607 37.875h6.188v-10.661c0-5.705-3.054-8.357-7.125-8.357-3.321 0-4.795 1.848-5.598 3.134h0.054v-2.705h-6.188s0.080 1.741 0 18.589v0h6.188v-10.393c0-0.536 0.027-1.098 0.188-1.5 0.455-1.098 1.473-2.25 3.188-2.25 2.223 0 3.107 1.688 3.107 4.205v9.938zM41.143 11.143v25.714c0 4.259-3.455 7.714-7.714 7.714h-25.714c-4.259 0-7.714-3.455-7.714-7.714v-25.714c0-4.259 3.455-7.714 7.714-7.714h25.714c4.259 0 7.714 3.455 7.714 7.714z"></path>
</svg>
